<?xml version="1.0" encoding="iso-8859-1"?>
<!-- Generator: Adobe Illustrator 19.0.0, SVG Export Plug-In . SVG Version: 6.00 Build 0)  -->
<svg version="1.1" id="Capa_1" xmlns="http://www.w3.org/2000/svg" xmlns:xlink="http://www.w3.org/1999/xlink" x="0px" y="0px"
	 viewBox="0 0 514.16 514.16" style="enable-background:new 0 0 514.16 514.16;" xml:space="preserve">
<g>
	<g>
		<g>
			<path d="M32,257.08c0-110.457,89.543-200,200-200s200,89.543,200,200v40h13.84L400,352.088l-45.84-55.008H368v-32
				c0-83.947-68.053-152-152-152s-152,68.053-152,152h32c0-66.274,53.726-120,120-120s120,53.726,120,120h-50.16L400,402.088
				L514.16,265.08H464v-8c0-128.13-103.869-232-231.999-232.001S0,128.949,0,257.079c0,124.787,98.707,227.22,223.408,231.842
				l1.184-32C116.932,453.314,31.628,364.8,32,257.08z"/>
			<rect x="256" y="457.08" width="32" height="32"/>
			<rect x="320" y="457.08" width="32" height="32"/>
			<rect x="384" y="457.08" width="32" height="32"/>
		</g>
	</g>
</g>
<g>
</g>
<g>
</g>
<g>
</g>
<g>
</g>
<g>
</g>
<g>
</g>
<g>
</g>
<g>
</g>
<g>
</g>
<g>
</g>
<g>
</g>
<g>
</g>
<g>
</g>
<g>
</g>
<g>
</g>
</svg>
