<?xml version="1.0" encoding="iso-8859-1"?>
<!-- Generator: Adobe Illustrator 19.0.0, SVG Export Plug-In . SVG Version: 6.00 Build 0)  -->
<svg version="1.1" id="Capa_1" xmlns="http://www.w3.org/2000/svg" xmlns:xlink="http://www.w3.org/1999/xlink" x="0px" y="0px"
	 viewBox="0 0 511.999 511.999" style="enable-background:new 0 0 511.999 511.999;" xml:space="preserve">
<g>
	<g>
		<path d="M499.953,305.292l-41.946-83.893C455.824,83.247,329.897-23.191,188.04,4.37C99.249,21.62,28.508,93.039,12.01,182.086
			c-11.614,62.687,2.33,125.035,39.264,175.562c30.151,41.247,46.756,90.736,46.758,139.351c0,8.284,6.716,15,15,15h210.002
			c8.284,0,15-6.716,15-15v-39.2c0-4.301,3.499-7.8,7.8-7.8h67.201c24.813,0,45-20.187,45-45v-45h8.108
			c13.196,0,25.217-6.702,32.154-17.927C505.236,330.844,505.855,317.096,499.953,305.292z M472.778,326.298
			c-0.688,1.112-2.71,3.699-6.635,3.699h-23.109c-8.284,0-15,6.716-15,15v60.001c0,8.271-6.729,15-15,15h-67.201
			c-20.843,0-37.8,16.957-37.8,37.8v24.2H127.571c-3.06-49.999-21.279-99.924-52.078-142.055
			c-32.009-43.79-44.079-97.911-33.984-152.392c14.271-77.032,75.458-138.811,152.253-153.732
			C317.129,9.853,428.034,102.91,428.034,224.996c0,2.329,0.542,4.625,1.584,6.708l43.501,87.003
			C474.875,322.22,473.465,325.186,472.778,326.298z"/>
	</g>
</g>
<g>
	<g>
		<path d="M323.033,149.995c-37.244,0-64.583,25.08-90.001,52.667c-25.418-27.586-52.757-52.667-90.001-52.667
			c-41.355,0-75.001,33.645-75.001,75.001s33.645,75.001,75.001,75.001c37.244,0,64.583-25.08,90.001-52.667
			c25.418,27.586,52.757,52.667,90.001,52.667c41.355,0,75.001-33.645,75.001-75.001S364.389,149.995,323.033,149.995z
			 M143.031,269.998c-24.813,0-45-20.187-45-45s20.187-45,45-45c25.862,0,47.586,20.728,69.78,45
			C190.619,249.269,168.893,269.998,143.031,269.998z M323.033,269.998c-25.862,0-47.587-20.727-69.78-45
			c22.192-24.273,43.917-45,69.78-45c24.813,0,45,20.187,45,45S347.847,269.998,323.033,269.998z"/>
	</g>
</g>
<g>
</g>
<g>
</g>
<g>
</g>
<g>
</g>
<g>
</g>
<g>
</g>
<g>
</g>
<g>
</g>
<g>
</g>
<g>
</g>
<g>
</g>
<g>
</g>
<g>
</g>
<g>
</g>
<g>
</g>
</svg>
