<svg height="512pt" viewBox="-40 0 512 512" width="512pt" xmlns="http://www.w3.org/2000/svg"><g fill-rule="evenodd"><path d="m257.578125 112.578125-17.644531 17.726563-17.613282-17.691407c-21.34375-21.589843-56.242187-21.699219-77.804687 0-21.246094 21.480469-21.246094 56.429688.023437 77.933594 21.542969 21.675781 56.460938 21.539063 77.746094.007813l17.648438-17.726563 17.609375 17.691406c21.347656 21.589844 56.242187 21.699219 77.804687 0 21.246094-21.476562 21.246094-56.425781-.023437-77.933593-21.542969-21.671876-56.460938-21.535157-77.746094-.007813zm-56.589844 56.847656c-11.015625 11.144531-26.957031 8.234375-35.144531 0-9.738281-9.847656-9.738281-25.871093-.023438-35.691406 5.003907-5.03125 21.527344-13.824219 35.203126.007813l17.742187 17.824218zm113.058594-.027343c-5.003906 5.035156-21.527344 13.824218-35.203125-.007813l-17.746094-17.824219 17.78125-17.859375c11.015625-11.140625 26.953125-8.234375 35.144532.003907 9.738281 9.84375 9.738281 25.867187.023437 35.6875zm0 0"/><path d="m431.664062 209.632812c0-191.261718-167.960937-209.632812-196.40625-209.632812-108.625 0-179.023437 94.339844-179.023437 167.898438v26.722656c-8.914063 11.457031-34.382813 44.203125-46.503906 59.789062-6.273438 8.066406-9.730469 18.136719-9.730469 28.355469 0 19.183594 11.507812 36.1875 29.328125 43.324219l13.988281 5.59375 22.660156 63.445312c11.234376 31.464844 41.234376 52.605469 74.648438 52.605469h23.328125l13.226563 52.90625c1.671874 6.675781 7.671874 11.359375 14.554687 11.359375h192.796875c4.707031 0 9.144531-2.210938 11.976562-5.96875 2.835938-3.753906 3.742188-8.625 2.449219-13.152344l-30.636719-107.230468 49.746094-111.933594c9.023438-20.308594 13.597656-41.867188 13.597656-64.082032zm-41.011718 51.898438-51.960938 116.910156c-1.425781 3.214844-1.679687 6.828125-.714844 10.210938l26.671876 93.347656h-161.203126l-13.226562-52.90625c-1.667969-6.675781-7.667969-11.359375-14.550781-11.359375h-35.042969c-20.769531 0-39.414062-13.140625-46.398438-32.695313l-24.933593-69.816406c-1.445313-4.050781-4.5625-7.289062-8.558594-8.882812l-20.261719-8.105469c-10.390625-4.160156-13.640625-16.953125-7.0625-25.402344 12.648438-16.269531 39.820313-51.203125 47.570313-61.167969 3.386719-4.359374 5.253906-9.796874 5.253906-15.3125v-28.453124c0-40.292969 42.6875-137.898438 149.039063-137.898438 23.5625 0 166.390624 14.332031 166.390624 179.632812 0 17.992188-3.703124 35.453126-11.011718 51.898438zm0 0"/></g></svg>