<?xml version="1.0" encoding="iso-8859-1"?>
<!-- Generator: Adobe Illustrator 19.0.0, SVG Export Plug-In . SVG Version: 6.00 Build 0)  -->
<svg version="1.1" id="Capa_1" xmlns="http://www.w3.org/2000/svg" xmlns:xlink="http://www.w3.org/1999/xlink" x="0px" y="0px"
	 viewBox="0 0 512 512" style="enable-background:new 0 0 512 512;" xml:space="preserve">
<g>
	<g>
		<path d="M143.025,179.983c-24.815,0-45.002,20.187-45.002,45.002c0,24.815,20.187,45.002,45.002,45.002
			c25.87,0,47.595-20.729,69.788-45.002C190.619,200.711,168.895,179.983,143.025,179.983z"/>
	</g>
</g>
<g>
	<g>
		<path d="M323.034,179.983c-25.87,0-47.595,20.729-69.788,45.002c22.193,24.273,43.918,45.002,69.788,45.002
			c24.815,0,45.002-20.187,45.002-45.002C368.036,200.17,347.849,179.983,323.034,179.983z"/>
	</g>
</g>
<g>
	<g>
		<path d="M499.966,305.278l-41.956-83.896C455.835,83.184,329.832-23.141,188.041,4.355
			C99.238,21.597,28.497,93.026,12.002,182.064c-11.617,62.713,2.329,125.06,39.26,175.571
			c30.587,41.867,46.76,91.359,46.76,139.365c0,8.291,6.709,15.001,15.001,15.001h210.01c8.291,0,15.001-6.709,15.001-15.001V457.79
			c0-4.292,3.501-7.793,7.793-7.793h67.21c24.815,0,45.002-20.187,45.002-45.002v-45.002h8.115c13.185,0,25.211-6.694,32.141-17.916
			C505.24,330.841,505.87,317.099,499.966,305.278z M323.034,299.989c-37.253,0-64.588-25.079-90.004-52.664
			c-25.416,27.584-52.752,52.664-90.004,52.664c-41.355,0-75.004-33.649-75.004-75.004c0-41.355,33.649-75.004,75.004-75.004
			c37.253,0,64.588,25.079,90.004,52.664c25.416-27.584,52.752-52.664,90.004-52.664c41.355,0,75.004,33.649,75.004,75.004
			C398.037,266.341,364.388,299.989,323.034,299.989z"/>
	</g>
</g>
<g>
</g>
<g>
</g>
<g>
</g>
<g>
</g>
<g>
</g>
<g>
</g>
<g>
</g>
<g>
</g>
<g>
</g>
<g>
</g>
<g>
</g>
<g>
</g>
<g>
</g>
<g>
</g>
<g>
</g>
</svg>
